<svg id="Group_483" xmlns="http://www.w3.org/2000/svg" width="100%" height="100%" viewBox="0 0 311.291 22.449" preserveAspectRatio="none"><g id="Group_482"><path id="Path_448" d="M0,0H311.291V22.449H0Z" fill="rgba(0,0,0,0.2)"/></g><path id="Path_449" d="M18.707,8.925H16.113v6.859H15.094V8.925H12.5V8.034h6.207Zm3.521,1.96h-.463a1.39,1.39,0,0,0-1.39.8v4.1H19.356V9.994h1.019v.624a1.733,1.733,0,0,1,1.39-.8.863.863,0,0,1,.463.089Zm4.447,4.9a5.508,5.508,0,0,1-.185-.624,2.363,2.363,0,0,1-1.668.713,2.878,2.878,0,0,1-1.482-.445,1.47,1.47,0,0,1-.556-1.247,1.836,1.836,0,0,1,.741-1.425,3.849,3.849,0,0,1,2.038-.534h1.019v-.445a1.213,1.213,0,0,0-.278-.8,1.15,1.15,0,0,0-.926-.267,1.61,1.61,0,0,0-.926.267.9.9,0,0,0-.371.624H23.062a1.213,1.213,0,0,1,.278-.8,1.86,1.86,0,0,1,.834-.624,2.649,2.649,0,0,1,1.2-.267,2.4,2.4,0,0,1,1.575.534,2.042,2.042,0,0,1,.649,1.336v2.672a5.07,5.07,0,0,0,.185,1.247v.089Zm-1.76-.713a1.84,1.84,0,0,0,.926-.267,2.124,2.124,0,0,0,.649-.624V13.023h-.834c-1.3,0-1.853.356-1.853,1.069a.99.99,0,0,0,.278.713A1.535,1.535,0,0,0,24.915,15.072ZM28.9,12.845a3.454,3.454,0,0,1,.649-2.138,2.366,2.366,0,0,1,3.15-.356l.278.267V7.589h1.019v8.2h-.926l-.093-.624a2.363,2.363,0,0,1-1.668.713,2.008,2.008,0,0,1-1.668-.8A2.755,2.755,0,0,1,28.9,12.845Zm1.019.178a2.269,2.269,0,0,0,.463,1.514,1.519,1.519,0,0,0,1.2.534,1.362,1.362,0,0,0,1.39-.8V11.6a1.538,1.538,0,0,0-1.39-.8,1.519,1.519,0,0,0-1.2.534A2.27,2.27,0,0,0,29.917,13.023Zm8.06,2.851a2.571,2.571,0,0,1-1.946-.8,2.485,2.485,0,0,1-.741-2.049v-.178a2.837,2.837,0,0,1,.371-1.514,2.646,2.646,0,0,1,.926-1.069,2.189,2.189,0,0,1,1.3-.356,2.814,2.814,0,0,1,1.853.713,2.96,2.96,0,0,1,.649,2.138V13.2H36.31a1.777,1.777,0,0,0,.556,1.336,1.583,1.583,0,0,0,1.3.534,3.409,3.409,0,0,0,.926-.178,3.986,3.986,0,0,0,.649-.535l.649.445A2.9,2.9,0,0,1,37.978,15.874Zm-.093-5.167a1.515,1.515,0,0,0-1.019.445A3.062,3.062,0,0,0,36.31,12.4h2.965V12.31a1.835,1.835,0,0,0-.463-1.158A1.156,1.156,0,0,0,37.885,10.707Zm9.357.178h-.463a1.39,1.39,0,0,0-1.39.8v4.1H44.37V9.994h1.019v.624a1.733,1.733,0,0,1,1.39-.8.863.863,0,0,1,.463.089Zm3.243,4.989a2.571,2.571,0,0,1-1.946-.8,2.485,2.485,0,0,1-.741-2.049v-.178a2.837,2.837,0,0,1,.371-1.514,2.646,2.646,0,0,1,.926-1.069,2.189,2.189,0,0,1,1.3-.356,2.814,2.814,0,0,1,1.853.713,2.96,2.96,0,0,1,.649,2.138V13.2H48.817a1.777,1.777,0,0,0,.556,1.336,1.583,1.583,0,0,0,1.3.534,3.409,3.409,0,0,0,.926-.178,3.985,3.985,0,0,0,.649-.535l.556.445A2.524,2.524,0,0,1,50.485,15.874Zm-.093-5.167a1.515,1.515,0,0,0-1.019.445,3.062,3.062,0,0,0-.556,1.247h3.057V12.31a1.835,1.835,0,0,0-.463-1.158A1.515,1.515,0,0,0,50.392,10.707Zm7.134,3.563a.794.794,0,0,0-.278-.624,2.706,2.706,0,0,0-1.112-.356,4.724,4.724,0,0,1-1.2-.356,1.234,1.234,0,0,1-.649-.534.932.932,0,0,1-.185-.713,1.286,1.286,0,0,1,.649-1.158,2.052,2.052,0,0,1,1.575-.445,2.85,2.85,0,0,1,1.668.534,1.68,1.68,0,0,1,.649,1.247h-1.2a.8.8,0,0,0-.371-.713,1.61,1.61,0,0,0-.926-.267,1.327,1.327,0,0,0-.834.267.794.794,0,0,0-.278.624.627.627,0,0,0,.278.534,4.632,4.632,0,0,0,1.019.356,4.724,4.724,0,0,1,1.2.356,2.225,2.225,0,0,1,.741.535,1.4,1.4,0,0,1,.278.8,1.427,1.427,0,0,1-.649,1.247,2.767,2.767,0,0,1-1.668.445,3.382,3.382,0,0,1-1.3-.267,1.615,1.615,0,0,1-.834-.713,1.744,1.744,0,0,1-.278-.98h1.019a1.3,1.3,0,0,0,.371.8,1.924,1.924,0,0,0,1.019.267,2.835,2.835,0,0,0,.926-.178C57.341,14.716,57.526,14.538,57.526,14.27Zm7.412-1.247a3.633,3.633,0,0,1-.649,2.138,2.008,2.008,0,0,1-1.668.8,2.146,2.146,0,0,1-1.668-.624V18.1H59.935V10.172h.926l.093.624a1.977,1.977,0,0,1,1.76-.713,2.008,2.008,0,0,1,1.668.8,3.634,3.634,0,0,1,.649,2.138Zm-1.019-.178a2.269,2.269,0,0,0-.463-1.514,1.519,1.519,0,0,0-1.2-.534,1.538,1.538,0,0,0-1.39.8v2.761a1.538,1.538,0,0,0,1.39.8,1.519,1.519,0,0,0,1.2-.534A3.213,3.213,0,0,0,63.919,12.845Zm2.038,0a2.837,2.837,0,0,1,.371-1.514,2.646,2.646,0,0,1,.926-1.069,2.7,2.7,0,0,1,1.39-.356,2.571,2.571,0,0,1,1.946.8,2.669,2.669,0,0,1,.741,2.138v.178a2.837,2.837,0,0,1-.371,1.514,2.647,2.647,0,0,1-.926,1.069,2.7,2.7,0,0,1-1.39.356,2.571,2.571,0,0,1-1.946-.8A4.071,4.071,0,0,1,65.957,12.845Zm1.019.178a2.269,2.269,0,0,0,.463,1.514,1.646,1.646,0,0,0,2.223.267l.278-.267a2.51,2.51,0,0,0,.463-1.6,2.268,2.268,0,0,0-.463-1.514,1.542,1.542,0,0,0-2.131-.267l-.278.267A2.269,2.269,0,0,0,66.976,13.023Zm6.671-2.94V10.8a2.319,2.319,0,0,1,1.76-.8c1.3,0,1.946.713,1.946,2.049v3.831H76.333V12.043a1.464,1.464,0,0,0-.278-.891,1.15,1.15,0,0,0-.926-.267,1.327,1.327,0,0,0-.834.267,1.391,1.391,0,0,0-.556.713v4.1H72.72v-5.79Zm8.8,4.187a.794.794,0,0,0-.278-.624,2.706,2.706,0,0,0-1.112-.356,4.724,4.724,0,0,1-1.2-.356,1.234,1.234,0,0,1-.649-.534.932.932,0,0,1-.185-.713,1.286,1.286,0,0,1,.649-1.158,2.052,2.052,0,0,1,1.575-.445,2.85,2.85,0,0,1,1.668.534,1.68,1.68,0,0,1,.649,1.247H82.54a.8.8,0,0,0-.371-.713,1.61,1.61,0,0,0-.926-.267,1.327,1.327,0,0,0-.834.267.794.794,0,0,0-.278.624.627.627,0,0,0,.278.534,4.631,4.631,0,0,0,1.019.356,4.724,4.724,0,0,1,1.2.356,2.225,2.225,0,0,1,.741.535,1.4,1.4,0,0,1,.278.8A1.427,1.427,0,0,1,83,15.607a2.767,2.767,0,0,1-1.668.445,3.382,3.382,0,0,1-1.3-.267,1.615,1.615,0,0,1-.834-.713,1.744,1.744,0,0,1-.278-.98h.741a1.3,1.3,0,0,0,.371.8,1.924,1.924,0,0,0,1.019.267,2.835,2.835,0,0,0,.926-.178C82.262,14.716,82.448,14.538,82.448,14.27Zm3.428,1.514H84.857V9.994h1.019Zm-1.112-7.3c0-.178.093-.267.185-.445a.87.87,0,0,1,.926,0,.667.667,0,0,1,.185.445.457.457,0,0,1-.185.356.87.87,0,0,1-.926,0C84.857,8.836,84.764,8.658,84.764,8.48Zm7.875,4.543a3.633,3.633,0,0,1-.649,2.138,2.008,2.008,0,0,1-1.668.8,2.319,2.319,0,0,1-1.76-.8l-.093.624h-.926v-8.2h1.019v3.029a1.734,1.734,0,0,1,1.668-.713,2.008,2.008,0,0,1,1.668.8A3.34,3.34,0,0,1,92.639,13.023Zm-1.019-.178a2.837,2.837,0,0,0-.371-1.514,1.519,1.519,0,0,0-1.2-.534,1.657,1.657,0,0,0-1.482.891v2.494a1.657,1.657,0,0,0,1.482.891,1.228,1.228,0,0,0,1.112-.534A3.575,3.575,0,0,0,91.62,12.845Zm3.428,2.94H94.028v-8.2h1.019Zm3.521-1.425,1.39-4.276h1.112l-2.409,6.681c-.371.98-.926,1.425-1.76,1.425h-.185l-.371-.089v-.8h.278a2.8,2.8,0,0,0,.834-.178,1.219,1.219,0,0,0,.463-.713l.185-.624-2.131-5.7h1.112Zm2.872.891c0-.178.093-.267.185-.445a.636.636,0,0,1,.926,0,.667.667,0,0,1,.185.445c0,.178-.093.267-.185.445a.87.87,0,0,1-.926,0C101.44,15.607,101.44,15.428,101.44,15.25Zm9.635-7.216v.8h-.185a3.059,3.059,0,0,0-1.946.713,2.914,2.914,0,0,0-.834,1.871,2.582,2.582,0,0,1,1.76-.713,2.208,2.208,0,0,1,1.668.713,2.727,2.727,0,0,1,.649,1.871,2.583,2.583,0,0,1-.649,1.871,2.475,2.475,0,0,1-3.521,0l-.185-.178a3.8,3.8,0,0,1-.741-2.227V12.4a5.273,5.273,0,0,1,.926-3.3A3.425,3.425,0,0,1,110.8,7.945Zm-1.3,3.474a1.7,1.7,0,0,0-1.575,1.069v.356a2.269,2.269,0,0,0,.463,1.514,1.424,1.424,0,0,0,1.112.624,1.435,1.435,0,0,0,1.482-1.693,1.988,1.988,0,0,0-.371-1.247A1.323,1.323,0,0,0,109.778,11.509Zm9.913-1.96a1.835,1.835,0,0,1,.463-1.158,1.8,1.8,0,0,1,1.2-.445,2,2,0,0,1,1.2.445,1.835,1.835,0,0,1,.463,1.158v.356a1.836,1.836,0,0,1-.463,1.158,1.8,1.8,0,0,1-1.2.445,2,2,0,0,1-1.2-.445,1.836,1.836,0,0,1-.463-1.158Zm.834.445a.99.99,0,0,0,.278.713.92.92,0,0,0,1.3,0,.99.99,0,0,0,.278-.713V9.638a.99.99,0,0,0-.278-.713.9.9,0,0,0-1.2-.089l-.093.089a.99.99,0,0,0-.278.713Zm3.15,3.92a1.835,1.835,0,0,1,.463-1.158,1.784,1.784,0,0,1,2.409,0,1.835,1.835,0,0,1,.463,1.158v.356a1.835,1.835,0,0,1-.463,1.158,1.8,1.8,0,0,1-1.2.445,2,2,0,0,1-1.2-.445,1.835,1.835,0,0,1-.463-1.158Zm.741.356a.989.989,0,0,0,.278.713.92.92,0,0,0,1.3,0,.99.99,0,0,0,.278-.713v-.356a.99.99,0,0,0-.278-.713.921.921,0,0,0-1.3,0,.99.99,0,0,0-.278.713Zm-2.779.98-.556-.356,3.891-6.058.556.356Zm9.079-2.405a2.837,2.837,0,0,1,.371-1.514,2.646,2.646,0,0,1,.926-1.069,2.7,2.7,0,0,1,1.39-.356,2.571,2.571,0,0,1,1.946.8,2.669,2.669,0,0,1,.741,2.138v.178a2.837,2.837,0,0,1-.371,1.514,2.647,2.647,0,0,1-.926,1.069,2.7,2.7,0,0,1-1.39.356,2.571,2.571,0,0,1-1.946-.8A4.071,4.071,0,0,1,130.716,12.845Zm1.019.178a2.269,2.269,0,0,0,.463,1.514,1.646,1.646,0,0,0,2.224.267l.278-.267a2.51,2.51,0,0,0,.463-1.6,2.919,2.919,0,0,0-.463-1.514,1.542,1.542,0,0,0-2.131-.267l-.278.267A2.269,2.269,0,0,0,131.735,13.023Zm6.207,2.762V10.8h-.926v-.8h.926V9.46a1.979,1.979,0,0,1,.556-1.425,2.153,2.153,0,0,1,1.482-.534,2.116,2.116,0,0,1,.741.089l-.093.8c-.185,0-.371-.089-.556-.089a1.076,1.076,0,0,0-.741.267,1.213,1.213,0,0,0-.278.8v.624h1.3v.8h-1.39v4.989Zm9.172-4.9h-.463a1.39,1.39,0,0,0-1.39.8v4.1h-1.019V9.994h1.019v.624a1.538,1.538,0,0,1,1.39-.8.863.863,0,0,1,.463.089Zm3.335,4.989a2.571,2.571,0,0,1-1.946-.8,2.485,2.485,0,0,1-.741-2.049v-.178a2.837,2.837,0,0,1,.371-1.514,2.646,2.646,0,0,1,.926-1.069,2.189,2.189,0,0,1,1.3-.356,2.814,2.814,0,0,1,1.853.713,2.96,2.96,0,0,1,.649,2.138V13.2h-4.076a1.777,1.777,0,0,0,.556,1.336,1.583,1.583,0,0,0,1.3.534,3.409,3.409,0,0,0,.926-.178,3.985,3.985,0,0,0,.649-.535l.649.445A3.012,3.012,0,0,1,150.45,15.874Zm-.185-5.167a1.515,1.515,0,0,0-1.019.445,3.063,3.063,0,0,0-.556,1.247h2.965V12.31a1.835,1.835,0,0,0-.463-1.158A1.156,1.156,0,0,0,150.265,10.707Zm5.1-2.049v1.425h1.112v.8H155.36v3.563a.639.639,0,0,0,.185.534.88.88,0,0,0,.926.089v.8a2.391,2.391,0,0,1-.741.089,1.426,1.426,0,0,1-1.019-.356,1.743,1.743,0,0,1-.371-1.158V10.885h-1.112v-.8h1.112V8.658Zm5.929,7.127a5.508,5.508,0,0,1-.185-.624,2.363,2.363,0,0,1-1.668.713,2.878,2.878,0,0,1-1.482-.445,1.47,1.47,0,0,1-.556-1.247,1.836,1.836,0,0,1,.741-1.425,3.849,3.849,0,0,1,2.038-.534H161.2v-.445a1.213,1.213,0,0,0-.278-.8,1.15,1.15,0,0,0-.926-.267,1.61,1.61,0,0,0-.926.267.894.894,0,0,0-.371.624h-1.019a1.213,1.213,0,0,1,.278-.8,1.86,1.86,0,0,1,.834-.624,2.649,2.649,0,0,1,1.2-.267,2.4,2.4,0,0,1,1.575.534,2.042,2.042,0,0,1,.649,1.336v2.672A5.07,5.07,0,0,0,162.4,15.7v.089Zm-1.668-.713a1.84,1.84,0,0,0,.926-.267,2.125,2.125,0,0,0,.649-.624V13.023h-.834c-1.3,0-1.853.356-1.853,1.069a.99.99,0,0,0,.278.713A1.535,1.535,0,0,0,159.622,15.072Zm5.281.713h-1.019V9.994H164.9Zm-1.112-7.3c0-.178.093-.267.185-.445a.87.87,0,0,1,.926,0,.667.667,0,0,1,.185.445.457.457,0,0,1-.185.356.87.87,0,0,1-.926,0C163.884,8.836,163.791,8.658,163.791,8.48Zm3.891,7.3h-1.019v-8.2h1.019Zm10.469-2.405a2.822,2.822,0,0,1-.926,1.871,2.887,2.887,0,0,1-2.131.624,3.217,3.217,0,0,1-2.316-.98,3.467,3.467,0,0,1-.834-2.672v-.713a4.235,4.235,0,0,1,.371-1.871,3,3,0,0,1,1.112-1.247,3.891,3.891,0,0,1,1.668-.445,2.853,2.853,0,0,1,2.038.713,3.031,3.031,0,0,1,.926,1.871h-1.112a1.866,1.866,0,0,0-.648-1.336,2.27,2.27,0,0,0-1.3-.445,2.01,2.01,0,0,0-1.575.713,2.787,2.787,0,0,0-.556,2.049v.713a3.488,3.488,0,0,0,.556,1.96,1.769,1.769,0,0,0,1.575.713,2.7,2.7,0,0,0,1.39-.356,2.3,2.3,0,0,0,.649-1.336Zm5.929-.98h-3.335v3.385h-1.019V8.034h5v.8h-3.891v2.672h3.335Zm1.853,3.385V8.034h2.316a4.353,4.353,0,0,1,1.853.445,2.671,2.671,0,0,1,1.2,1.247,4.636,4.636,0,0,1,.463,1.871v.534a3.812,3.812,0,0,1-.463,1.96,2.873,2.873,0,0,1-1.3,1.247,4.352,4.352,0,0,1-1.853.445Zm1.019-6.859v6.058h1.112a3.059,3.059,0,0,0,1.946-.713,2.867,2.867,0,0,0,.649-2.049v-.445a2.867,2.867,0,0,0-.649-2.049,2.054,2.054,0,0,0-1.853-.713Zm12.692,6.859a5.509,5.509,0,0,1-.185-.624,2.363,2.363,0,0,1-1.668.713,2.878,2.878,0,0,1-1.482-.445,1.47,1.47,0,0,1-.556-1.247,1.836,1.836,0,0,1,.741-1.425,3.848,3.848,0,0,1,2.038-.534h1.019v-.445a1.213,1.213,0,0,0-.278-.8,1.15,1.15,0,0,0-.926-.267,1.61,1.61,0,0,0-.926.267.894.894,0,0,0-.371.624h-1.019a1.213,1.213,0,0,1,.278-.8,1.86,1.86,0,0,1,.834-.624,2.649,2.649,0,0,1,1.2-.267,2.4,2.4,0,0,1,1.575.534,2.042,2.042,0,0,1,.649,1.336v2.672a5.07,5.07,0,0,0,.185,1.247v.089Zm-1.668-.713a1.84,1.84,0,0,0,.926-.267,2.124,2.124,0,0,0,.649-.624V13.023h-.834c-1.3,0-1.853.356-1.853,1.069a.99.99,0,0,0,.278.713A1.535,1.535,0,0,0,197.977,15.072Zm6.578,0a1.215,1.215,0,0,0,.926-.356.928.928,0,0,0,.463-.8h.926a2.139,2.139,0,0,1-.371.98,3.16,3.16,0,0,1-.834.713,2.609,2.609,0,0,1-3.057-.534,3.534,3.534,0,0,1-.741-2.138v-.178a4.369,4.369,0,0,1,.278-1.514,1.962,1.962,0,0,1,.926-.98,2.7,2.7,0,0,1,1.39-.356,2.654,2.654,0,0,1,1.668.534,1.876,1.876,0,0,1,.741,1.514h-.926a1.083,1.083,0,0,0-.463-.891,1.427,1.427,0,0,0-1.019-.356,1.518,1.518,0,0,0-1.2.535,2.988,2.988,0,0,0-.463,1.6v.178a2.269,2.269,0,0,0,.463,1.514A1.549,1.549,0,0,0,204.555,15.072Zm5.929,0a1.215,1.215,0,0,0,.926-.356.928.928,0,0,0,.463-.8h.926a2.139,2.139,0,0,1-.371.98,3.16,3.16,0,0,1-.834.713,2.609,2.609,0,0,1-3.057-.534,3.534,3.534,0,0,1-.741-2.138v-.178a4.018,4.018,0,0,1,.278-1.514,1.962,1.962,0,0,1,.926-.98,2.7,2.7,0,0,1,1.39-.356,2.654,2.654,0,0,1,1.668.534,1.876,1.876,0,0,1,.741,1.514h-.926a1.083,1.083,0,0,0-.463-.891,1.427,1.427,0,0,0-1.019-.356,1.518,1.518,0,0,0-1.2.535,2.919,2.919,0,0,0-.463,1.514v.267a2.269,2.269,0,0,0,.463,1.514A1.549,1.549,0,0,0,210.485,15.072Zm3.243-2.227a2.837,2.837,0,0,1,.371-1.514,2.646,2.646,0,0,1,.926-1.069,2.7,2.7,0,0,1,1.39-.356,2.571,2.571,0,0,1,1.946.8,2.669,2.669,0,0,1,.741,2.138v.178a2.838,2.838,0,0,1-.371,1.514,2.647,2.647,0,0,1-.926,1.069,2.7,2.7,0,0,1-1.39.356,2.571,2.571,0,0,1-1.946-.8A3.059,3.059,0,0,1,213.727,12.845Zm1.019.178a2.269,2.269,0,0,0,.463,1.514,1.646,1.646,0,0,0,2.223.267l.278-.267a2.51,2.51,0,0,0,.463-1.6,2.269,2.269,0,0,0-.463-1.514,1.542,1.542,0,0,0-2.131-.267l-.278.267A1.923,1.923,0,0,0,214.746,13.023ZM224.1,15.25a2.582,2.582,0,0,1-1.76.713,2.153,2.153,0,0,1-1.482-.534,1.97,1.97,0,0,1-.463-1.6V10.083h1.019v3.741q0,1.336,1.112,1.336a1.573,1.573,0,0,0,1.575-.8V10.172h1.019v5.79H224.1Zm3.521-5.167V10.8a2.319,2.319,0,0,1,1.76-.8c1.3,0,1.946.713,1.946,2.049v3.831h-1.019V12.043a1.464,1.464,0,0,0-.278-.891,1.15,1.15,0,0,0-.926-.267,1.327,1.327,0,0,0-.834.267,1.392,1.392,0,0,0-.556.713v4.1H226.7v-5.79Zm6.671-1.425v1.425h1.112v.8h-1.112v3.563a.639.639,0,0,0,.185.534.88.88,0,0,0,.926.089v.8a2.391,2.391,0,0,1-.741.089,1.426,1.426,0,0,1-1.019-.356,1.743,1.743,0,0,1-.371-1.158V10.885h-1.112v-.8h1.112V8.658Zm5.837,5.612a.794.794,0,0,0-.278-.624,2.706,2.706,0,0,0-1.112-.356,4.724,4.724,0,0,1-1.2-.356,1.234,1.234,0,0,1-.648-.534.932.932,0,0,1-.185-.713,1.286,1.286,0,0,1,.649-1.158,2.052,2.052,0,0,1,1.575-.445,2.85,2.85,0,0,1,1.668.534,1.68,1.68,0,0,1,.649,1.247h-1.019a.8.8,0,0,0-.371-.713,1.61,1.61,0,0,0-.926-.267,1.327,1.327,0,0,0-.834.267.8.8,0,0,0-.278.624.627.627,0,0,0,.278.534,4.632,4.632,0,0,0,1.019.356,4.724,4.724,0,0,1,1.2.356,2.225,2.225,0,0,1,.741.535,1.4,1.4,0,0,1,.278.8,1.427,1.427,0,0,1-.649,1.247,2.767,2.767,0,0,1-1.668.445,3.382,3.382,0,0,1-1.3-.267,1.615,1.615,0,0,1-.834-.713,1.744,1.744,0,0,1-.278-.98h1.019a1.3,1.3,0,0,0,.371.8,1.924,1.924,0,0,0,1.019.267,2.835,2.835,0,0,0,.926-.178C239.946,14.716,240.131,14.538,240.131,14.27Zm6.3,1.514h-1.019v-8.2h1.019Zm1.3-2.94a2.837,2.837,0,0,1,.371-1.514,2.646,2.646,0,0,1,.926-1.069,2.7,2.7,0,0,1,1.39-.356,2.571,2.571,0,0,1,1.946.8,2.669,2.669,0,0,1,.741,2.138v.178a2.837,2.837,0,0,1-.371,1.514,2.647,2.647,0,0,1-.926,1.069,2.7,2.7,0,0,1-1.39.356,2.571,2.571,0,0,1-1.946-.8A4.071,4.071,0,0,1,247.728,12.845Zm1.112.178a2.269,2.269,0,0,0,.463,1.514,1.646,1.646,0,0,0,2.223.267l.278-.267a2.51,2.51,0,0,0,.463-1.6,2.919,2.919,0,0,0-.463-1.514,1.542,1.542,0,0,0-2.131-.267l-.278.267A1.68,1.68,0,0,0,248.84,13.023Zm9.172,1.247a.8.8,0,0,0-.278-.624,2.707,2.707,0,0,0-1.112-.356,4.723,4.723,0,0,1-1.2-.356,1.234,1.234,0,0,1-.649-.534.932.932,0,0,1-.185-.713,1.286,1.286,0,0,1,.649-1.158,2.052,2.052,0,0,1,1.575-.445,2.85,2.85,0,0,1,1.668.534,1.68,1.68,0,0,1,.649,1.247H258.1a.8.8,0,0,0-.371-.713,1.61,1.61,0,0,0-.926-.267,1.327,1.327,0,0,0-.834.267.8.8,0,0,0-.278.624.627.627,0,0,0,.278.534,4.632,4.632,0,0,0,1.019.356,4.724,4.724,0,0,1,1.2.356,2.225,2.225,0,0,1,.741.535,1.4,1.4,0,0,1,.278.8,1.427,1.427,0,0,1-.649,1.247,2.767,2.767,0,0,1-1.668.445,3.382,3.382,0,0,1-1.3-.267,1.615,1.615,0,0,1-.834-.713,1.744,1.744,0,0,1-.278-.98h1.019a1.3,1.3,0,0,0,.371.8,1.924,1.924,0,0,0,1.019.267,2.835,2.835,0,0,0,.926-.178C257.827,14.716,258.012,14.538,258.012,14.27Zm4.818,1.6a2.571,2.571,0,0,1-1.946-.8,2.485,2.485,0,0,1-.741-2.049v-.178a2.838,2.838,0,0,1,.371-1.514,2.645,2.645,0,0,1,.926-1.069,2.189,2.189,0,0,1,1.3-.356,2.815,2.815,0,0,1,1.853.713,2.96,2.96,0,0,1,.648,2.138V13.2h-4.076a1.777,1.777,0,0,0,.556,1.336,1.583,1.583,0,0,0,1.3.534,3.409,3.409,0,0,0,.926-.178,3.986,3.986,0,0,0,.649-.535l.648.445A2.9,2.9,0,0,1,262.829,15.874Zm-.185-5.167a1.515,1.515,0,0,0-1.019.445,3.062,3.062,0,0,0-.556,1.247h2.965V12.31a1.836,1.836,0,0,0-.463-1.158A.934.934,0,0,0,262.644,10.707Zm7.5-.624v.624a1.977,1.977,0,0,1,1.76-.713,1.565,1.565,0,0,1,1.668.891,2.769,2.769,0,0,1,.741-.713,2.546,2.546,0,0,1,1.112-.267,1.819,1.819,0,0,1,2.038,1.96V15.7h-1.019V11.865a1.464,1.464,0,0,0-.278-.891,1.074,1.074,0,0,0-1.019-.267,1.215,1.215,0,0,0-.926.356,1.674,1.674,0,0,0-.463.891v3.831h-1.019V12.043a1.116,1.116,0,0,0-.926-1.247h-.278a1.538,1.538,0,0,0-1.39.8v4.187h-1.019V9.994Zm8.616,2.762a2.837,2.837,0,0,1,.371-1.514,2.646,2.646,0,0,1,.926-1.069,2.7,2.7,0,0,1,1.39-.356,2.571,2.571,0,0,1,1.946.8,2.669,2.669,0,0,1,.741,2.138v.178a2.838,2.838,0,0,1-.371,1.514,2.647,2.647,0,0,1-.926,1.069,2.7,2.7,0,0,1-1.39.356,2.571,2.571,0,0,1-1.946-.8A4.071,4.071,0,0,1,278.765,12.845Zm1.019.178a2.269,2.269,0,0,0,.463,1.514,1.646,1.646,0,0,0,2.223.267l.278-.267a2.51,2.51,0,0,0,.463-1.6,2.268,2.268,0,0,0-.463-1.514,1.542,1.542,0,0,0-2.131-.267l-.278.267A2.269,2.269,0,0,0,279.784,13.023Zm6.671-2.94V10.8a2.319,2.319,0,0,1,1.76-.8c1.3,0,1.946.713,1.946,2.049v3.831h-1.019V12.043a1.464,1.464,0,0,0-.278-.891,1.15,1.15,0,0,0-.926-.267,1.327,1.327,0,0,0-.834.267,1.392,1.392,0,0,0-.556.713v4.1h-1.019v-5.79Zm7.782,5.79a2.571,2.571,0,0,1-1.946-.8,2.485,2.485,0,0,1-.741-2.049v-.178a2.837,2.837,0,0,1,.371-1.514,2.646,2.646,0,0,1,.926-1.069,2.189,2.189,0,0,1,1.3-.356,2.814,2.814,0,0,1,1.853.713,2.96,2.96,0,0,1,.649,2.138V13.2h-4.076a1.777,1.777,0,0,0,.556,1.336,1.583,1.583,0,0,0,1.3.534,3.409,3.409,0,0,0,.926-.178,3.985,3.985,0,0,0,.649-.535l.463.445A2.37,2.37,0,0,1,294.236,15.874Zm-.093-5.167a1.515,1.515,0,0,0-1.019.445,3.063,3.063,0,0,0-.556,1.247h2.965V12.31a1.835,1.835,0,0,0-.463-1.158A1.156,1.156,0,0,0,294.144,10.707Zm5.466,3.652L301,10.083h1.112L299.7,16.765c-.371.98-.926,1.425-1.76,1.425h-.185l-.371-.089v-.8h.278a2.8,2.8,0,0,0,.834-.178,1.219,1.219,0,0,0,.463-.713l.185-.624-2.131-5.7h1.112Zm2.872.891c0-.178.093-.267.185-.445a.636.636,0,0,1,.926,0,.667.667,0,0,1,.185.445c0,.178-.093.267-.185.445a.87.87,0,0,1-.926,0A.667.667,0,0,1,302.482,15.25Z" transform="translate(-0.919 -0.552)" fill="#fff" data-color-group="0"/><path id="Path_450" d="M123.887,11.38a1.613,1.613,0,0,0,1.2-.356,1.121,1.121,0,0,0,.371-.891v-.089a.922.922,0,0,0-.371-.891,2.077,2.077,0,0,0-2.038,0,2.433,2.433,0,0,0-.649.713l-.741-.534a1.576,1.576,0,0,1,.371-.445,1.618,1.618,0,0,1,.463-.356,4.613,4.613,0,0,1,.649-.267,2.663,2.663,0,0,1,.834-.089,2.965,2.965,0,0,1,.926.089,1.891,1.891,0,0,1,.741.356,3.921,3.921,0,0,1,.556.624,2.517,2.517,0,0,1,.185.8,1.89,1.89,0,0,1-.093.713,1.86,1.86,0,0,1-.371.535.919.919,0,0,1-.463.356,4.615,4.615,0,0,1-.649.267c.185.089.463.089.649.178s.371.267.556.356a1.859,1.859,0,0,1,.371.534,2.059,2.059,0,0,1,.185.8,2.548,2.548,0,0,1-.185.891,1.391,1.391,0,0,1-.556.713,3.8,3.8,0,0,1-.834.445,4.818,4.818,0,0,1-1.112.178,2.967,2.967,0,0,1-.926-.089c-.278-.089-.463-.178-.741-.267a2.436,2.436,0,0,1-.556-.445c-.185-.178-.278-.356-.463-.445l.741-.535a1.574,1.574,0,0,0,.371.445l.371.356c.185.089.278.178.463.178a1.423,1.423,0,0,0,.649.089,1.862,1.862,0,0,0,1.3-.356,1.448,1.448,0,0,0,.463-1.069v-.089a1.448,1.448,0,0,0-.463-1.069,1.862,1.862,0,0,0-1.3-.356h-.926v-.8h1.019Z" transform="translate(-8.913 -0.601)" fill="#fff" data-color-group="0"/></svg>