<svg width="100%" height="100%" viewBox="0 0 250 46" fill="none" xmlns="http://www.w3.org/2000/svg" preserveAspectRatio="none"><g clip-path="url(#clip0)"><path d="M10.1456 1.87695L25.9375 22.5226L0.625 43.1682H26.2085C29.8343 43.1689 33.3541 41.9299 36.1919 39.6709C39.0297 37.4118 41.0187 34.2565 41.8344 30.7202L43.9525 21.5354C44.4951 19.1826 44.5003 16.7376 43.9678 14.3826C43.4353 12.0276 42.3787 9.82315 40.8769 7.93362C39.375 6.04409 37.4666 4.51815 35.2938 3.46948C33.1209 2.42081 30.7397 1.87645 28.3275 1.87695H10.1456Z" fill="white" data-color-group="0"/><path fill-rule="evenodd" clip-rule="evenodd" d="M79.7419 1.87695H63.6575L56.3862 43.1564H72.47C85.4312 43.1564 95.9756 34.133 98.0219 22.5151L98.0431 22.3975C100.089 10.7821 92.7031 1.87695 79.7419 1.87695ZM83.5209 31.5365C80.8368 33.8019 77.4242 35.0185 73.9137 34.9613L66.9031 34.9594L71.2869 10.0726H78.2975C85.7206 10.0726 89.825 15.2028 88.5368 22.5182L88.5162 22.6365C87.9795 26.1096 86.2051 29.271 83.5209 31.5365Z" fill="white" data-color-group="0"/><path d="M109.988 1.87695H141.39L139.967 9.95628H117.579L116.104 18.3309H130.362L128.937 26.4102H114.681L113.154 35.0795H135.541L134.118 43.1589H102.716L109.988 1.87695Z" fill="white" data-color-group="0"/><path d="M181.752 15.6182C180.579 22.2842 176.247 26.469 170.661 28.4154L178.139 43.157H167.534L157.662 21.9264H164.499C168.916 21.9264 171.866 19.5671 172.479 16.088L172.5 15.9698C173.186 12.0778 170.828 10.0726 166.41 10.0726H157.396L151.568 43.1589H142.495L149.767 1.87695H168.62C173.863 1.87695 177.669 3.35155 179.899 6.06427C181.793 8.36406 182.461 11.6079 181.774 15.5L181.752 15.6182Z" fill="white" data-color-group="0"/><path d="M192.528 1.87695H201.601L194.329 43.1589H185.256L192.528 1.87695Z" fill="white" data-color-group="0"/><path d="M218.882 1.87695H208.938L218.218 43.1589H226.174L250 1.87695H240.289L224.5 30.7452L218.882 1.87695Z" fill="white" data-color-group="0"/></g><defs><clipPath id="clip0"><rect width="250" height="45.045" fill="white" data-color-group="0"/></clipPath></defs></svg>